<?xml version="1.0" encoding="utf-8"?>
<!-- Generator: Adobe Illustrator 27.0.1, SVG Export Plug-In . SVG Version: 6.00 Build 0)  -->
<svg version="1.0" id="katman_1" xmlns="http://www.w3.org/2000/svg" xmlns:xlink="http://www.w3.org/1999/xlink" x="0px" y="0px"
	 viewBox="0 0 94.6 30" style="enable-background:new 0 0 94.6 30;" xml:space="preserve">
<style type="text/css">
	.st0{fill:#00C08B;}
</style>
<path class="st0" d="M35.7,11.1c-1.6,0-2.8,0.5-3.8,1.5c-0.9,1-1.4,2.4-1.4,4.1c0,1.7,0.5,3.1,1.5,4.1c1,1,2.3,1.5,3.9,1.5
	c0.6,0,1.1-0.1,1.6-0.2c0.5-0.1,0.9-0.3,1.3-0.6c0.4-0.3,0.8-0.6,1.2-1c0.3-0.4,0.7-0.8,1-1.3l-1.9-1.1c-0.5,0.8-1,1.3-1.4,1.6
	c-0.4,0.3-1,0.5-1.6,0.5c-0.8,0-1.5-0.3-2.1-0.8C33.3,19,33,18.3,33,17.4l0-0.1h7.9l0-0.5c0-1.8-0.5-3.2-1.4-4.2
	C38.5,11.6,37.3,11.1,35.7,11.1L35.7,11.1z M33.1,15.4l0-0.1c0.1-0.3,0.2-0.6,0.4-0.9c0.2-0.3,0.4-0.5,0.6-0.7
	c0.2-0.2,0.5-0.3,0.8-0.4c0.3-0.1,0.6-0.1,0.9-0.1c1.4,0,2.3,0.7,2.7,2.1l0,0.1H33.1L33.1,15.4z M68.8,20.5
	c-1.1-1.2-1.7-2.7-1.7-4.4V5.6h2.4v9.7c0,1.5,0.3,2.6,0.8,3.3c0.7,1,1.8,1.5,3.2,1.5c1.4,0,2.4-0.5,3.2-1.5c0.5-0.7,0.8-1.8,0.8-3.3
	V5.6h2.4v10.4c0,1.8-0.6,3.3-1.7,4.4c-1.3,1.3-2.8,1.9-4.6,1.9C71.6,22.4,70.1,21.8,68.8,20.5L68.8,20.5z M47.9,11.1
	c-1.6,0-2.8,0.5-3.8,1.5c-0.9,1-1.4,2.4-1.4,4.1c0,1.7,0.5,3.1,1.5,4.1c1,1,2.3,1.5,3.9,1.5c0.6,0,1.1-0.1,1.6-0.2
	c0.5-0.1,0.9-0.3,1.3-0.6c0.4-0.3,0.8-0.6,1.2-1c0.3-0.4,0.7-0.8,1-1.3l-1.9-1.1c-0.5,0.8-1,1.3-1.4,1.6c-0.4,0.3-1,0.5-1.6,0.5
	c-0.8,0-1.5-0.3-2.1-0.8c-0.5-0.6-0.8-1.3-0.9-2.2l0-0.1H53l0-0.5c0-1.8-0.5-3.2-1.4-4.2C50.8,11.6,49.5,11.1,47.9,11.1L47.9,11.1z
	 M45.3,15.4l0-0.1c0.1-0.3,0.2-0.6,0.4-0.9c0.2-0.3,0.4-0.5,0.6-0.7c0.2-0.2,0.5-0.3,0.8-0.4c0.3-0.1,0.6-0.1,0.9-0.1
	c1.4,0,2.3,0.7,2.7,2.1l0,0.1H45.3L45.3,15.4z M20.5,12.9L20.5,12.9L20.5,12.9z M20.4,12.6c0-0.4,0-0.8-0.1-1.2
	c-0.8-0.1-1.6-0.1-2.4,0c-0.1,0-0.2,0-0.3,0.1c-1.9,0.3-3.6,1.2-5,2.6c-1.4,1.3-2.3,3.1-2.7,4.9l0,0.1c0,0.1-0.1,0.3-0.1,0.4l0,0.2
	l-0.1,0c-1.5-0.2-2.8-0.9-3.9-2c-1.4-1.4-2.1-3.2-2.1-5.1s0.7-3.7,2.1-5.1c1.4-1.4,3.2-2.1,5.1-2.1c1.8,0,3.6,0.7,4.9,1.9l1.5-1.8
	c-1.8-1.6-4-2.5-6.4-2.5c-2.5,0-4.9,1-6.7,2.8c-1.8,1.8-2.8,4.2-2.8,6.7c0,2.5,1,4.9,2.8,6.7c1.5,1.5,3.4,2.4,5.5,2.7l0.1,0v6H12
	l0-6l0.1,0c2.1-0.3,4-1.2,5.5-2.7c1.7-1.7,2.7-4,2.8-6.4L20.4,12.6L20.4,12.6z M17.9,14c-0.3,1.4-1,2.7-2,3.7c-1,1-2.2,1.6-3.6,1.9
	l-0.2,0l0-0.2c0-0.2,0.1-0.4,0.1-0.5c0.3-1.2,1-2.3,1.8-3.2c0.9-0.9,2-1.5,3.2-1.8c0.2,0,0.3-0.1,0.5-0.1l0.2,0L17.9,14L17.9,14z
	 M58.3,14c-0.4,0.6-0.5,1.5-0.5,2.9v5.2h-2.3V11.4h2.3v1.2l0.2-0.2c0.9-0.9,1.8-1.3,2.9-1.3c1.2,0,2.2,0.4,2.9,1.2
	c0.6,0.7,0.9,1.8,0.9,3.3v6.6h-2.3v-6c0-1.1-0.2-1.9-0.5-2.3c-0.3-0.5-0.9-0.7-1.7-0.7C59.3,13.1,58.6,13.4,58.3,14L58.3,14z
	 M88.2,22.4c1.4,0,2.7-0.5,3.6-1.6c1-1.1,1.4-2.4,1.4-4c0-1.6-0.5-3-1.5-4.1c-0.9-1.1-2.2-1.6-3.6-1.6c-1.2,0-2.3,0.5-3.3,1.5
	l-0.2,0.2v-1.4h-2.3v16.7h2.3v-7.4l0.2,0.2C85.9,21.9,87,22.4,88.2,22.4L88.2,22.4z M84.5,16.8c0-1.1,0.3-2,0.9-2.6
	c0.6-0.7,1.4-1,2.4-1c0.9,0,1.7,0.4,2.3,1c0.6,0.7,0.9,1.6,0.9,2.6c0,1-0.3,1.9-0.9,2.6c-0.6,0.7-1.4,1-2.3,1c-1,0-1.7-0.3-2.3-1
	C84.8,18.7,84.5,17.8,84.5,16.8L84.5,16.8z M25.3,16.6v5.6H23V11.4h2.3v1.2l0.2-0.2c0.5-0.5,0.9-0.8,1.2-1c0.3-0.2,0.8-0.3,1.3-0.3
	c0.6,0,1.3,0.2,1.9,0.6l-1,2.1c-0.5-0.3-0.9-0.5-1.4-0.5C26.1,13.3,25.3,14.4,25.3,16.6L25.3,16.6z"/>
</svg>
